<svg xmlns="http://www.w3.org/2000/svg" width="16" height="16" viewBox="0 0 16 16">
  <title>vaadin</title>
  <g>
    <path d="M8.69,6.09a.85.85,0,0,0,0-.1c0-.37.09-.75,1-.75h3c1.36,0,1.95-.64,1.95-1.92V2.22a.66.66,0,1,0-1.31,0V2.6c0,.41-.26.7-.88.7H9.49C8.15,3.3,8,4.3,8,4.82H8c0-.53-.15-1.52-1.49-1.52H3.53c-.62,0-.9-.3-.9-.71V2.22a.64.64,0,1,0-1.29,0V3.31c0,1.28.58,1.92,1.94,1.92h3c.9,0,1,.38,1,.75a.88.88,0,0,0,0,.11.7.7,0,0,0,1.4,0Z" fill="#00b4f0"/>
    <path d="M8,14.28a.78.78,0,0,0,.71-.46l0,0,2.74-5.07a.88.88,0,0,0-.76-1.31.85.85,0,0,0-.83.6L8,11.5,6.08,8a.86.86,0,0,0-.83-.6.88.88,0,0,0-.76,1.31l2.74,5.07v0A.78.78,0,0,0,8,14.28Z" fill="#00b4f0"/>
  </g>
</svg>